<svg version="1.2" xmlns="http://www.w3.org/2000/svg" viewBox="0 0 200 200" width="520" height="520">
	<title>New Project</title>
	<style>
		.s0 { fill: #ffffff } 
	</style>
	<path id="path" fill-rule="evenodd" class="s0" d="m200 0.5v200h-200v-200zm-143.8 162h-5.7c-11.4 0-20.6-9.2-20.6-20.6 0-11.3 9.2-20.6 20.6-20.6 8 0 15.3 4.7 18.7 12l0.3 0.8 7.2-3.3-0.3-0.8c-4.7-10.1-14.8-16.6-25.9-16.6-15.8 0-28.5 12.8-28.5 28.5 0 15.8 12.8 28.5 28.5 28.5h5.7zm24.1-17.6h-25.8v8h17.9v17.9h7.9zm49.8 18.1h-31v-47.9h-7.9v55.6h38.9zm47.9 0h-14.9v-48h-7.5v0.9c0 4.2-2.1 6.8-12.7 6.8h-0.8v6.7h13.1v33.6h-16v7.6h38.8z"/>
</svg>