<?xml version="1.0" encoding="UTF-8"?>
<svg id="Layer_2" xmlns="http://www.w3.org/2000/svg" viewBox="0 0 23.49 8.63">
  <g id="Layer_1-2" data-name="Layer_1">
    <g>
      <polygon points="11.61 .26 10.42 .26 10.42 8.63 16.27 8.63 16.27 7.47 11.61 7.47 11.61 .26"/>
      <path d="M21.24,7.47V.26h-1.13v.12c0,.64-.32,1.04-1.91,1.04h-.12v1h1.97v5.05h-2.42v1.16h5.85v-1.16h-2.25Z"/>
      <path d="M1.19,4.29c0-1.71,1.39-3.1,3.1-3.1,1.21,0,2.31.71,2.82,1.8l.05.11,1.08-.5-.05-.11c-.7-1.52-2.23-2.5-3.9-2.5C1.92,0,0,1.92,0,4.29s1.93,4.29,4.29,4.29h.85v-1.19h-.86c-1.71,0-3.1-1.39-3.1-3.1Z"/>
      <polygon points="4.9 5.93 7.59 5.93 7.59 8.63 8.78 8.63 8.78 4.74 4.9 4.74 4.9 5.93"/>
    </g>
  </g>
</svg>